<svg width="18" height="18" viewBox="0 0 18 18" fill="none" xmlns="http://www.w3.org/2000/svg">
<g id="calendar-number-outline 1">
<path id="Vector" d="M14.625 2.8125H3.375C2.44302 2.8125 1.6875 3.56802 1.6875 4.5V14.625C1.6875 15.557 2.44302 16.3125 3.375 16.3125H14.625C15.557 16.3125 16.3125 15.557 16.3125 14.625V4.5C16.3125 3.56802 15.557 2.8125 14.625 2.8125Z" stroke="black" stroke-width="1.125" stroke-linejoin="round"/>
<path id="Vector_2" d="M4.5 1.6875V2.8125M13.5 1.6875V2.8125M16.3125 5.625H1.6875M10.6875 9.14062L12.214 8.01562H12.375V13.9219M5.41336 8.54051C5.56559 8.28316 5.99168 7.875 6.74402 7.875C7.63348 7.875 8.42766 8.35945 8.42766 9.27773C8.42967 9.4555 8.39608 9.63188 8.32888 9.79647C8.26168 9.96106 8.16223 10.1105 8.03637 10.2361C7.65211 10.6295 7.0657 10.78 6.74543 10.78C7.10754 10.78 7.77164 10.9501 8.20617 11.3945C8.48461 11.6782 8.61328 12.0783 8.61328 12.522C8.61328 13.5021 7.78605 14.0625 6.78094 14.0625C5.93121 14.0625 5.40984 13.4448 5.23828 13.1541" stroke="black" stroke-width="1.125" stroke-linecap="round" stroke-linejoin="round"/>
</g>
</svg>
