<svg width="18" height="18" viewBox="0 0 18 18" fill="none" xmlns="http://www.w3.org/2000/svg">
<g id="desktop-outline 1">
<path id="Vector" d="M15.75 2.25H2.25C1.62868 2.25 1.125 2.75368 1.125 3.375V12.375C1.125 12.9963 1.62868 13.5 2.25 13.5H15.75C16.3713 13.5 16.875 12.9963 16.875 12.375V3.375C16.875 2.75368 16.3713 2.25 15.75 2.25Z" stroke="black" stroke-width="1.125" stroke-linejoin="round"/>
<path id="Vector_2" d="M10.6875 15.75L10.4062 13.5H7.59375L7.3125 15.75H10.6875Z" fill="black" stroke="black" stroke-width="1.125" stroke-linecap="round" stroke-linejoin="round"/>
<path id="Vector_3" d="M12.9375 15.75H5.0625" stroke="black" stroke-width="1.125" stroke-linecap="round" stroke-linejoin="round"/>
<path id="Vector_4" d="M1.125 10.6875V12.375C1.12583 12.6731 1.24463 12.9588 1.45543 13.1696C1.66622 13.3804 1.95189 13.4992 2.25 13.5H15.75C16.0481 13.4992 16.3338 13.3804 16.5446 13.1696C16.7554 12.9588 16.8742 12.6731 16.875 12.375V10.6875H1.125ZM9 12.9375C8.88875 12.9375 8.77999 12.9045 8.68749 12.8427C8.59499 12.7809 8.52289 12.693 8.48032 12.5903C8.43774 12.4875 8.4266 12.3744 8.44831 12.2653C8.47001 12.1561 8.52359 12.0559 8.60225 11.9773C8.68092 11.8986 8.78115 11.845 8.89026 11.8233C8.99938 11.8016 9.11248 11.8127 9.21526 11.8553C9.31804 11.8979 9.40589 11.97 9.4677 12.0625C9.52951 12.155 9.5625 12.2637 9.5625 12.375C9.5625 12.5242 9.50324 12.6673 9.39775 12.7727C9.29226 12.8782 9.14918 12.9375 9 12.9375Z" fill="black"/>
</g>
</svg>
