<svg width="18" height="18" viewBox="0 0 18 18" fill="none" xmlns="http://www.w3.org/2000/svg">
<g id="football-outline 1">
<path id="Vector" d="M9 15.75C5.27208 15.75 2.25 12.7279 2.25 9C2.25 5.27208 5.27208 2.25 9 2.25C12.7279 2.25 15.75 5.27208 15.75 9C15.75 12.7279 12.7279 15.75 9 15.75Z" stroke="black" stroke-width="1.125" stroke-miterlimit="10" stroke-linecap="round"/>
<path id="Vector_2" d="M9 6.15617L11.675 8.40019M9 6.15617L6.32496 8.40019M9 6.15617V4.13223M11.675 8.40019L10.9688 11.2486M11.675 8.40019L13.5337 7.61269M10.9688 11.2486H7.03125M10.9688 11.2486L11.9531 12.9361M7.03125 11.2486L6.32496 8.40019M7.03125 11.2486L6.04688 12.9361L7.03125 15.4321M6.32496 8.40019L4.46625 7.61269M4.46625 7.61269L3.55992 5.03715M4.46625 7.61269L2.28516 9.48969M13.5337 7.61269L14.4401 5.03715M13.5337 7.61269L15.7148 9.48969M9 4.13223L6.75 2.63316M9 4.13223L11.25 2.63281M3.55992 12.9361H5.97656M11.9531 12.9361L10.9557 15.4497M11.9531 12.9361H14.4271" stroke="black" stroke-width="1.125" stroke-linecap="round" stroke-linejoin="round"/>
</g>
</svg>
