<svg width="18" height="18" viewBox="0 0 18 18" fill="none" xmlns="http://www.w3.org/2000/svg">
<g id="globe-outline 1">
<path id="Vector" d="M9 16.3125C4.9616 16.3125 1.6875 13.0384 1.6875 9C1.6875 4.9616 4.9616 1.6875 9 1.6875C13.0384 1.6875 16.3125 4.9616 16.3125 9C16.3125 13.0384 13.0384 16.3125 9 16.3125Z" stroke="black" stroke-miterlimit="10"/>
<path id="Vector_2" d="M9.00012 16.3125C6.95859 16.3125 5.03906 13.0384 5.03906 9C5.03906 4.9616 6.95859 1.6875 9.00012 1.6875C11.0416 1.6875 12.9612 4.9616 12.9612 9C12.9612 13.0384 11.0416 16.3125 9.00012 16.3125Z" stroke="black" stroke-miterlimit="10"/>
<path id="Vector_3" d="M4.125 13.875C5.46938 12.9205 7.1618 12.3513 9.00012 12.3513C10.8384 12.3513 12.5309 12.9205 13.8752 13.875M13.8752 4.12476C12.5309 5.07926 10.8384 5.64844 9.00012 5.64844C7.1618 5.64844 5.46938 5.07926 4.125 4.12476" stroke="black" stroke-linecap="round" stroke-linejoin="round"/>
<path id="Vector_4" d="M9 16.3125V1.6875M16.3125 9H1.6875" stroke="black" stroke-miterlimit="10"/>
</g>
</svg>
