<svg width="30" height="30" viewBox="0 0 30 30" fill="none" xmlns="http://www.w3.org/2000/svg">
<g id="list-outline 1">
<path id="Vector" d="M9.375 8.4375H26.25M9.375 15H26.25M9.375 21.5625H26.25" stroke="black" stroke-width="1.875" stroke-linecap="round" stroke-linejoin="round"/>
<path id="Vector_2" d="M4.6875 9.375C5.20527 9.375 5.625 8.95527 5.625 8.4375C5.625 7.91973 5.20527 7.5 4.6875 7.5C4.16973 7.5 3.75 7.91973 3.75 8.4375C3.75 8.95527 4.16973 9.375 4.6875 9.375Z" stroke="black" stroke-width="1.875" stroke-linecap="round" stroke-linejoin="round"/>
<path id="Vector_3" d="M4.6875 15.9375C5.20527 15.9375 5.625 15.5178 5.625 15C5.625 14.4822 5.20527 14.0625 4.6875 14.0625C4.16973 14.0625 3.75 14.4822 3.75 15C3.75 15.5178 4.16973 15.9375 4.6875 15.9375Z" stroke="black" stroke-width="1.875" stroke-linecap="round" stroke-linejoin="round"/>
<path id="Vector_4" d="M4.6875 22.5C5.20527 22.5 5.625 22.0803 5.625 21.5625C5.625 21.0447 5.20527 20.625 4.6875 20.625C4.16973 20.625 3.75 21.0447 3.75 21.5625C3.75 22.0803 4.16973 22.5 4.6875 22.5Z" stroke="black" stroke-width="1.875" stroke-linecap="round" stroke-linejoin="round"/>
</g>
</svg>
