<svg width="22" height="22" viewBox="0 0 22 22" fill="none" xmlns="http://www.w3.org/2000/svg">
<path id="Vector" d="M9.17789 6.72933C9.17789 7.35433 9.17788 7.9601 9.375 8.5274C7.30288 10.9601 1.83173 17.388 1.32212 17.8784C1.22083 17.9692 1.13981 18.0804 1.08431 18.2047C1.02881 18.3289 1.00009 18.4634 1 18.5995C1 19.0082 1.25 19.4024 1.46154 19.6236C1.77885 19.9553 3.13462 21.2101 3.38462 20.9697C4.125 20.2486 4.27404 20.0562 4.57692 19.7582C5.03365 19.3111 4.52885 18.3976 4.6875 18.0274C4.84615 17.6572 5.01442 17.5851 5.28846 17.5274C5.5625 17.4697 6.04808 17.6668 6.42788 17.6716C6.82692 17.6764 7.04327 17.5082 7.34135 17.2293C7.58173 17.0082 7.75481 16.8014 7.75962 16.4793C7.76923 16.0466 7.14423 15.4745 7.61058 15.0178C8.07692 14.5611 8.75 15.3159 9.24519 15.2582C9.74038 15.2005 10.3413 14.513 10.4038 14.2197C10.4663 13.9264 9.84135 13.1716 9.9375 12.7437C9.97115 12.5995 10.2644 12.263 10.4856 12.2149C10.7067 12.1668 11.6875 12.5466 11.9087 12.4986C12.1779 12.4409 12.4904 12.1572 12.7452 11.9986C13.4904 12.3207 14.1683 12.4505 15.0385 12.4505C18.3317 12.4505 21 9.88317 21 6.71971C21 3.55625 18.3317 1 15.0385 1C11.7452 1 9.17789 3.56586 9.17789 6.72933ZM17.9231 5.61538C17.9231 5.91966 17.8328 6.21711 17.6638 6.47011C17.4948 6.72311 17.2545 6.9203 16.9734 7.03674C16.6922 7.15318 16.3829 7.18365 16.0845 7.12428C15.786 7.06492 15.5119 6.9184 15.2968 6.70324C15.0816 6.48808 14.9351 6.21396 14.8757 5.91552C14.8164 5.61709 14.8468 5.30776 14.9633 5.02664C15.0797 4.74552 15.2769 4.50525 15.5299 4.3362C15.7829 4.16715 16.0803 4.07692 16.3846 4.07692C16.7926 4.07692 17.184 4.23901 17.4725 4.52753C17.761 4.81605 17.9231 5.20736 17.9231 5.61538Z" stroke="#6E6D6D" stroke-width="1.53846" stroke-linejoin="round"/>
</svg>
